<mxfile host="65bd71144e">
    <diagram id="8w6_ZQyTv7We87p8ui8c" name="Page-1">
        <mxGraphModel dx="529" dy="479" grid="1" gridSize="10" guides="1" tooltips="1" connect="1" arrows="1" fold="1" page="1" pageScale="1" pageWidth="850" pageHeight="1100" math="0" shadow="0">
            <root>
                <mxCell id="0"/>
                <mxCell id="1" parent="0"/>
                <mxCell id="2" value="&lt;font color=&quot;#000000&quot;&gt;size= large&lt;br&gt;toppings = 3&lt;br&gt;(6 + 2.5)*0.13 = 9.6&lt;br&gt;cost = 9.6&lt;br&gt;&lt;/font&gt;" style="rounded=1;whiteSpace=wrap;html=1;absoluteArcSize=1;arcSize=14;strokeWidth=2;" vertex="1" parent="1">
                    <mxGeometry x="339" y="240" width="150" height="100" as="geometry"/>
                </mxCell>
                <mxCell id="3" value="&lt;font color=&quot;#000000&quot;&gt;size= Extra large&lt;br&gt;toppings = 1&lt;br&gt;(10 + 1)*0.13 = 12.43&lt;br&gt;cost = 12.43&lt;br&gt;&lt;/font&gt;" style="rounded=1;whiteSpace=wrap;html=1;absoluteArcSize=1;arcSize=14;strokeWidth=2;" vertex="1" parent="1">
                    <mxGeometry x="339" y="370" width="150" height="100" as="geometry"/>
                </mxCell>
                <mxCell id="4" value="&lt;font color=&quot;#000000&quot;&gt;size= Extra large&lt;br&gt;roppings = 4&lt;br&gt;(6 + 2.5)*0.13 = 15.09&lt;br&gt;cost = 15.09&lt;br&gt;&lt;/font&gt;" style="rounded=1;whiteSpace=wrap;html=1;absoluteArcSize=1;arcSize=14;strokeWidth=2;" vertex="1" parent="1">
                    <mxGeometry x="339" y="500" width="150" height="100" as="geometry"/>
                </mxCell>
                <mxCell id="5" value="&lt;font color=&quot;#000000&quot;&gt;input = 3&lt;br&gt;4/1 - 4/3 + 4/5&lt;br&gt;answer = 3.47&lt;br&gt;&lt;/font&gt;" style="rounded=1;whiteSpace=wrap;html=1;absoluteArcSize=1;arcSize=14;strokeWidth=2;" vertex="1" parent="1">
                    <mxGeometry x="339" y="240" width="150" height="100" as="geometry"/>
                </mxCell>
                <mxCell id="6" value="&lt;font color=&quot;#000000&quot;&gt;input = 1&lt;br&gt;4/1&lt;br&gt;answer = 4&lt;br&gt;&lt;/font&gt;" style="rounded=1;whiteSpace=wrap;html=1;absoluteArcSize=1;arcSize=14;strokeWidth=2;" vertex="1" parent="1">
                    <mxGeometry x="339" y="370" width="150" height="100" as="geometry"/>
                </mxCell>
                <mxCell id="7" value="&lt;font color=&quot;#000000&quot;&gt;input = 6&amp;nbsp;&lt;br&gt;&lt;font style=&quot;font-size: 10px&quot;&gt;4/1 - 4/3 + 4/5 - 4/7 + 4/9 -4/11&lt;br&gt;&lt;/font&gt;answer = 2.98&lt;br&gt;&lt;/font&gt;" style="rounded=1;whiteSpace=wrap;html=1;absoluteArcSize=1;arcSize=14;strokeWidth=2;" vertex="1" parent="1">
                    <mxGeometry x="339" y="500" width="150" height="100" as="geometry"/>
                </mxCell>
            </root>
        </mxGraphModel>
    </diagram>
</mxfile>